<?xml version="1.0" encoding="UTF-8" standalone="no"?>
<!-- Created with Inkscape (http://www.inkscape.org/) -->

<svg
   xmlns:dc="http://purl.org/dc/elements/1.1/"
   xmlns:cc="http://creativecommons.org/ns#"
   xmlns:rdf="http://www.w3.org/1999/02/22-rdf-syntax-ns#"
   xmlns:svg="http://www.w3.org/2000/svg"
   xmlns="http://www.w3.org/2000/svg"
   xmlns:sodipodi="http://sodipodi.sourceforge.net/DTD/sodipodi-0.dtd"
   xmlns:inkscape="http://www.inkscape.org/namespaces/inkscape"
   width="146.81271"
   height="72.733475"
   id="svg4737"
   version="1.1"
   inkscape:version="0.48.1 r9760"
   sodipodi:docname="New document 4">
  <defs
     id="defs4739" />
  <sodipodi:namedview
     id="base"
     pagecolor="#ffffff"
     bordercolor="#666666"
     borderopacity="1.0"
     inkscape:pageopacity="0.0"
     inkscape:pageshadow="2"
     inkscape:zoom="1.4"
     inkscape:cx="102.85221"
     inkscape:cy="14.356321"
     inkscape:document-units="px"
     inkscape:current-layer="layer1"
     showgrid="false"
     fit-margin-top="0"
     fit-margin-left="0"
     fit-margin-right="0"
     fit-margin-bottom="0"
     inkscape:window-width="476"
     inkscape:window-height="465"
     inkscape:window-x="154"
     inkscape:window-y="154"
     inkscape:window-maximized="0" />
  <metadata
     id="metadata4742">
    <rdf:RDF>
      <cc:Work
         rdf:about="">
        <dc:format>image/svg+xml</dc:format>
        <dc:type
           rdf:resource="http://purl.org/dc/dcmitype/StillImage" />
        <dc:title></dc:title>
      </cc:Work>
    </rdf:RDF>
  </metadata>
  <g
     inkscape:label="Layer 1"
     inkscape:groupmode="layer"
     id="layer1"
     transform="translate(-300.87936,-507.42402)">
    <g
       id="g3275"
       transform="matrix(1.25,0,0,-1.25,302.21186,508.01977)">
      <path
         inkscape:connector-curvature="0"
         d="m 0,0 -1.066,-6.656 c 0,0 13.877,-0.157 16.879,-0.157 3.003,0 4.431,-4.189 3.957,-7.191 -0.477,-3.004 -2.479,-6.957 -5.483,-7.053 l -6.523,0 2.093,13.006 -6.425,0 -3.532,-19.722 14.104,0 c 2.191,0 11.34,3.716 12.387,12.671 C 27.436,-6.143 21.623,0.004 17.428,0.004 13.236,0.004 0,0 0,0"
         style="fill:#e41d25;fill-opacity:1;fill-rule:nonzero;stroke:none"
         id="path3277" />
    </g>
    <g
       id="g3279"
       transform="matrix(1.25,0,0,-1.25,350.08536,517.72678)">
      <path
         inkscape:connector-curvature="0"
         d="M 0,0 C 5.766,0 9.955,-4.238 9.67,-9.146 9.477,-12.475 7.955,-20.008 7.955,-20.008 l -6.24,0 c 0,0 0.832,5.877 1.426,9.244 0.668,3.762 -3.809,4.43 -5.858,3.239 -1.576,-0.92 -2.556,-3.789 -1.713,-5.241 1.047,-1.81 4.336,-0.285 4.524,-0.095 0.191,0.191 0.666,-5.764 0.666,-5.764 0,0 -1.809,-2.24 -6.332,-1.668 -3.42,0.432 -6.948,5.617 -5.766,10.768 C -9.908,-3.287 -4.191,0 0,0"
         style="fill:#e41d25;fill-opacity:1;fill-rule:nonzero;stroke:none"
         id="path3281" />
    </g>
    <g
       id="g3283"
       transform="matrix(1.25,0,0,-1.25,366.51611,518.08328)">
      <path
         inkscape:connector-curvature="0"
         d="m 0,0 6.434,0 -3.192,-19.627 -6.621,0 L 0,0 z"
         style="fill:#e41d25;fill-opacity:1;fill-rule:nonzero;stroke:none"
         id="path3285" />
    </g>
    <g
       id="g3287"
       transform="matrix(1.25,0,0,-1.25,366.28411,512.21902)">
      <path
         inkscape:connector-curvature="0"
         d="M 0,0 C 0,2.117 1.717,3.836 3.834,3.836 5.949,3.836 7.668,2.117 7.668,0 7.668,-2.117 5.949,-3.836 3.834,-3.836 1.717,-3.836 0,-2.117 0,0"
         style="fill:#e41d25;fill-opacity:1;fill-rule:nonzero;stroke:none"
         id="path3289" />
    </g>
    <g
       id="g3291"
       transform="matrix(1.25,0,0,-1.25,372.65374,542.73653)">
      <path
         inkscape:connector-curvature="0"
         d="m 0,0 6.336,0 c 0,0 1.143,7.719 1.43,9.814 0.287,2.096 2.189,2.668 3.287,2.858 l -0.623,7.242 c 0,0 -6.619,-0.096 -8.145,-7.004 C 1.15,7.766 0,0 0,0"
         style="fill:#e41d25;fill-opacity:1;fill-rule:nonzero;stroke:none"
         id="path3293" />
    </g>
    <g
       id="g3295"
       transform="matrix(1.25,0,0,-1.25,387.54149,518.08328)">
      <path
         inkscape:connector-curvature="0"
         d="M 0,0 6.238,0 8.145,-10.193 3.428,-19.723 0,0 z"
         style="fill:#e41d25;fill-opacity:1;fill-rule:nonzero;stroke:none"
         id="path3297" />
    </g>
    <g
       id="g3299"
       transform="matrix(1.25,0,0,-1.25,405.04636,518.08328)">
      <path
         inkscape:connector-curvature="0"
         d="m 0,0 7.002,0 c 0,0 -8.285,-20.105 -9.19,-22.105 -0.91,-2 -3.148,-5.573 -7.148,-5.573 l -10.721,0 1.336,6.524 6.526,0 c 2.429,0 3.668,0.383 4.718,3.293 C -6.621,-15.482 0,0 0,0"
         style="fill:#e41d25;fill-opacity:1;fill-rule:nonzero;stroke:none"
         id="path3301" />
    </g>
    <g
       id="g3303"
       transform="matrix(1.25,0,0,-1.25,354.48974,580.0119)">
      <path
         inkscape:connector-curvature="0"
         d="m 0,0 -6.695,0.092 c 0,0 2.713,20.107 3.623,22.105 0.904,2.002 3.095,6.098 7.093,6.098 l 15.487,0 -1.192,-6.334 -11.197,0 c -2.43,0 -4.101,-1.209 -4.687,-4.24 C 1.859,14.768 0,0 0,0"
         style="fill:#234379;fill-opacity:1;fill-rule:nonzero;stroke:none"
         id="path3305" />
    </g>
    <g
       id="g3307"
       transform="matrix(1.25,0,0,-1.25,359.91448,557.98065)">
      <path
         inkscape:connector-curvature="0"
         d="m 0,0 -1.049,-5.955 8.24,0 L 7.949,0 0,0 z"
         style="fill:#234379;fill-opacity:1;fill-rule:nonzero;stroke:none"
         id="path3309" />
    </g>
    <g
       id="g3311"
       transform="matrix(1.25,0,0,-1.25,384.32373,554.67015)">
      <path
         inkscape:connector-curvature="0"
         d="M 0,0 C 5.766,0 9.957,-4.238 9.672,-9.146 9.479,-12.477 7.957,-20.01 7.957,-20.01 l -6.24,0 c 0,0 0.838,5.881 1.431,9.242 0.666,3.764 -3.814,4.432 -5.863,3.241 -1.582,-0.92 -2.558,-3.786 -1.713,-5.241 1.047,-1.808 4.334,-0.285 4.528,-0.095 0.189,0.193 0.666,-5.764 0.666,-5.764 0,0 -1.811,-2.24 -6.34,-1.67 -3.418,0.434 -6.942,5.623 -5.764,10.77 C -9.908,-3.289 -4.188,0 0,0"
         style="fill:#234379;fill-opacity:1;fill-rule:nonzero;stroke:none"
         id="path3313" />
    </g>
    <g
       id="g3315"
       transform="matrix(1.25,0,0,-1.25,396.29386,579.89228)">
      <path
         inkscape:connector-curvature="0"
         d="m 0,0 6.336,0 c 0,0 1.143,7.719 1.428,9.814 0.287,2.096 2.191,2.666 3.289,2.854 l -0.623,7.246 c 0,0 -6.621,-0.094 -8.145,-7.002 C 1.15,7.768 0,0 0,0"
         style="fill:#234379;fill-opacity:1;fill-rule:nonzero;stroke:none"
         id="path3317" />
    </g>
    <g
       id="g3319"
       transform="matrix(1.25,0,0,-1.25,409.39698,579.89228)">
      <path
         inkscape:connector-curvature="0"
         d="m 0,0 c 0,0 1.621,10.385 2,12.48 0.379,2.096 3.137,7.862 8.051,7.862 4.81,0 5.666,-2.713 6.715,-3.766 1.142,0.862 3.097,3.766 7.382,3.766 3.768,0 6.625,-4.955 6.483,-7.766 C 30.486,9.768 29.15,0 29.15,0 l -6.716,0 c 0,0 1.199,6.963 1.525,10.053 0.289,2.715 -1.143,3.474 -2,3.474 -0.766,0 -2.381,-0.859 -2.668,-3.193 C 18.879,6.963 17.908,0 17.908,0 l -6.715,0 c 0,0 1.286,7.717 1.666,10.24 0.383,2.528 -1.285,2.826 -2.336,2.906 C 9.287,13.24 8.334,12.24 8.049,10.621 7.762,9.004 6.525,0 6.525,0 L 0,0 z"
         style="fill:#234379;fill-opacity:1;fill-rule:nonzero;stroke:none"
         id="path3321" />
    </g>
  </g>
</svg>
